<?xml version="1.0" encoding="UTF-8" standalone="no"?>
<!-- Created with Inkscape (http://www.inkscape.org/) -->

<svg
   xmlns:dc="http://purl.org/dc/elements/1.1/"
   xmlns:cc="http://creativecommons.org/ns#"
   xmlns:rdf="http://www.w3.org/1999/02/22-rdf-syntax-ns#"
   xmlns:svg="http://www.w3.org/2000/svg"
   xmlns="http://www.w3.org/2000/svg"
   xmlns:sodipodi="http://sodipodi.sourceforge.net/DTD/sodipodi-0.dtd"
   xmlns:inkscape="http://www.inkscape.org/namespaces/inkscape"
   version="1.1"
   id="svg2"
   xml:space="preserve"
   width="445.94312"
   height="398.47995"
   viewBox="0 0 445.94312 398.47995"
   sodipodi:docname="nafezly Logo.svg"
   inkscape:version="0.92.3 (2405546, 2018-03-11)"><metadata
     id="metadata8"><rdf:RDF><cc:Work
         rdf:about=""><dc:format>image/svg+xml</dc:format><dc:type
           rdf:resource="http://purl.org/dc/dcmitype/StillImage" /><dc:title></dc:title></cc:Work></rdf:RDF></metadata><defs
     id="defs6"><clipPath
       clipPathUnits="userSpaceOnUse"
       id="clipPath18"><path
         d="M 0,512 H 1080 V 0 H 0 Z"
         id="path16"
         inkscape:connector-curvature="0" /></clipPath></defs><sodipodi:namedview
     pagecolor="#ffffff"
     bordercolor="#666666"
     borderopacity="1"
     objecttolerance="10"
     gridtolerance="10"
     guidetolerance="10"
     inkscape:pageopacity="0"
     inkscape:pageshadow="2"
     inkscape:window-width="1900"
     inkscape:window-height="1055"
     id="namedview4"
     showgrid="false"
     inkscape:zoom="0.20763889"
     inkscape:cx="253.69508"
     inkscape:cy="183.72551"
     inkscape:window-x="20"
     inkscape:window-y="0"
     inkscape:window-maximized="1"
     inkscape:current-layer="g10" /><g
     id="g10"
     inkscape:groupmode="layer"
     inkscape:label="nafezly Logo"
     transform="matrix(1.3333333,0,0,-1.3333333,-466.30492,556.08775)"><g
       id="g12"><g
         id="g14"
         clip-path="url(#clipPath18)"><g
           id="g20"
           transform="translate(466.0107,121.7217)"><path
             d="m 0,0 c -45.878,9.101 -88.29,35.678 -116.282,77.572 l 59.921,40.148 C -22.466,67.003 46.343,53.354 97.031,87.293 c 50.686,33.946 64.352,102.842 30.46,153.573 l 59.926,40.133 C 243.398,197.203 220.824,83.401 137.096,27.318 95.229,-0.719 45.882,-9.101 0,0"
             style="fill:#1976d3;fill-opacity:1;fill-rule:nonzero;stroke:none"
             id="path22"
             inkscape:connector-curvature="0" /></g><g
           id="g24"
           transform="translate(488.1021,367.9307)"><path
             d="m 0,0 c -4.42,-22.284 -26.047,-36.77 -48.304,-32.354 -22.258,4.415 -36.717,26.058 -32.297,48.342 4.42,22.284 26.047,36.77 48.304,32.355 C -10.04,43.928 4.42,22.284 0,0"
             style="fill:#1976d3;fill-opacity:1;fill-rule:nonzero;stroke:none"
             id="path26"
             inkscape:connector-curvature="0" /></g></g></g></g></svg>